<svg width="20" height="20" viewBox="0 0 20 20" fill="none" xmlns="http://www.w3.org/2000/svg">
<path d="M9.99999 16.6668L3.89999 9.04183C3.62249 8.69516 3.48333 8.52183 3.44666 8.3135C3.40999 8.10516 3.47999 7.89433 3.61999 7.4735L4.23999 5.61266C4.60666 4.51266 4.78999 3.96266 5.22666 3.6485C5.66333 3.33433 6.24333 3.3335 7.40249 3.3335H12.5975C13.7567 3.3335 14.3367 3.3335 14.7725 3.6485C15.21 3.96266 15.3933 4.51266 15.76 5.61266L16.38 7.4735C16.52 7.89433 16.59 8.10433 16.5533 8.3135C16.5158 8.52183 16.3775 8.69516 16.1 9.04183L9.99999 16.6668ZM9.99999 16.6668L12.9167 7.50016M9.99999 16.6668L7.08333 7.50016M12.9167 7.50016L16.25 8.3335M12.9167 7.50016L11.6667 4.16683M12.9167 7.50016H7.08333M7.08333 7.50016L8.33333 4.16683M7.08333 7.50016L3.74999 8.3335" stroke="black" stroke-width="0.5" stroke-linecap="round"/>
</svg>
