<svg width="14" height="14" viewBox="0 0 14 14" fill="none" xmlns="http://www.w3.org/2000/svg">
<g clip-path="url(#clip0_76_702)">
<path d="M13.2057 0.794074C12.6776 0.265963 11.6945 0.392741 11.0101 1.07757C10.2665 1.82113 0.427246 13.5726 0.427246 13.5726C0.427246 13.5726 12.1787 3.7333 12.9222 2.98974C13.6071 2.3053 13.7339 1.32219 13.2057 0.794074ZM10.9972 3.00257C10.7861 2.79141 10.9253 2.30957 11.336 1.89891C11.7466 1.48824 12.251 1.32646 12.4622 1.53763C12.6734 1.7488 12.5116 2.25319 12.1009 2.66385C11.6902 3.07452 11.2084 3.21374 10.9972 3.00257Z" fill="black"/>
<path d="M13.1195 0.852016C12.5914 0.323905 11.7074 0.514071 11.023 1.19852C10.279 1.94246 1.9751 12.0248 1.9751 12.0248C1.9751 12.0248 3.49332 10.5738 5.60615 8.79818C6.59082 7.97063 9.03382 5.37907 9.99554 4.52429C10.4113 4.15485 11.4687 3.97324 11.7977 3.76207C12.1212 3.55402 12.5474 3.08813 12.7038 2.93179C13.3882 2.24696 13.6476 1.38013 13.1195 0.852016ZM10.8223 3.17757C10.524 2.87929 10.6664 2.25279 11.175 1.74413C11.6837 1.23546 12.3382 1.06474 12.6365 1.3634C12.9348 1.66168 12.7644 2.31618 12.2558 2.82485C11.7471 3.33352 11.121 3.47585 10.8223 3.17757Z" fill="black"/>
<path d="M10.9299 1.892C11.2939 2.24939 11.5167 2.62039 11.6365 3.00034C11.8092 2.91516 11.9664 2.80143 12.1012 2.66395C12.1626 2.60238 12.2198 2.53677 12.2723 2.46756C12.1059 2.0845 11.8492 1.70495 11.4747 1.33745C10.7872 0.662338 9.41245 0.327893 7.89034 0.462449C6.13606 0.618393 4.68434 1.3355 3.90812 2.42945C3.84845 2.51356 3.82464 2.61793 3.84193 2.71959C3.85921 2.82126 3.91618 2.91189 4.00029 2.97156C4.0844 3.03123 4.18876 3.05504 4.29043 3.03775C4.3921 3.02047 4.48273 2.9635 4.5424 2.87939C5.17706 1.98495 6.45456 1.37089 7.95956 1.23712C9.22112 1.12434 10.4162 1.388 10.9299 1.892ZM13.3772 11.9716C13.3426 11.934 13.301 11.9036 13.2547 11.882C13.2084 11.8605 13.1583 11.8483 13.1073 11.8461C13.0562 11.844 13.0053 11.8519 12.9573 11.8694C12.9093 11.8869 12.8653 11.9137 12.8277 11.9483C12.1755 12.5472 11.2181 12.7459 10.3893 12.4546C9.70412 12.2135 9.25262 11.6904 9.15073 11.0204C8.9804 9.8965 9.69829 8.95267 10.6067 7.75723L10.8653 7.41578C11.4775 6.60262 12.669 5.0175 12.5053 3.36628C12.3023 3.54439 12.0355 3.77578 11.7197 4.04723C11.5895 5.00195 10.9661 5.98856 10.2439 6.94834L9.98762 7.28667C9.00801 8.57506 8.16218 9.68806 8.3819 11.1371C8.52579 12.0863 9.17951 12.8532 10.1307 13.1881C10.4646 13.3053 10.816 13.3648 11.1698 13.3638C11.9643 13.3638 12.7561 13.0694 13.3535 12.5207C13.3912 12.4863 13.4217 12.4448 13.4433 12.3985C13.465 12.3522 13.4772 12.3021 13.4794 12.2511C13.4816 12.2001 13.4737 12.1491 13.4562 12.1012C13.4386 12.0532 13.4118 12.0092 13.3772 11.9716Z" fill="#222222"/>
<path d="M9.5849 3.36467C9.96562 2.96411 10.2433 2.51572 10.2954 2.91433C10.3475 3.31295 10.486 3.5035 10.694 3.5035C10.9021 3.5035 10.7096 3.87761 10.3821 3.97133C9.41184 4.24861 6.29295 7.80072 5.58245 8.45911C4.87195 9.1175 4.47373 9.41189 5.16673 8.52833C5.85973 7.64478 9.25551 3.71117 9.5849 3.36467Z" fill="black"/>
</g>
<defs>
<clipPath id="clip0_76_702">
<rect width="14" height="14" fill="white"/>
</clipPath>
</defs>
</svg>
