<svg width="80" height="48" viewBox="0 0 80 48" fill="none" xmlns="http://www.w3.org/2000/svg">
<path d="M16.1138 4.13317V0.026123H17.5818C17.9139 0.026123 18.211 0.0785522 18.4557 0.192151C18.7091 0.297012 18.9188 0.445565 19.0848 0.629071C19.2509 0.812577 19.3819 1.03104 19.4693 1.27571C19.5567 1.52039 19.6004 1.79128 19.6004 2.07091C19.6004 2.38549 19.5567 2.66512 19.4606 2.91853C19.3645 3.17194 19.2334 3.3904 19.0586 3.56517C18.8838 3.74868 18.6741 3.87975 18.4207 3.98461C18.176 4.08074 17.8964 4.13317 17.5906 4.13317H16.1225H16.1138ZM18.9363 2.07091C18.9363 1.85245 18.9101 1.6602 18.8489 1.4767C18.7877 1.29319 18.7003 1.14464 18.5867 1.01356C18.4731 0.882483 18.3246 0.786362 18.1586 0.707717C17.9925 0.63781 17.8003 0.594117 17.5906 0.594117H16.7779V3.55643H17.5906C17.809 3.55643 18.0013 3.52148 18.1673 3.44284C18.3333 3.36419 18.4819 3.26807 18.5955 3.12825C18.7091 2.99718 18.7965 2.83988 18.8576 2.65638C18.9188 2.47287 18.945 2.28063 18.945 2.07091" fill="#231F20"/>
<path d="M21.3741 0.026123H20.7188V4.13317H21.3741V0.026123Z" fill="#231F20"/>
<path d="M28.295 0.026123H27.6396V4.13317H28.295V0.026123Z" fill="#231F20"/>
<path d="M25.6384 3.62644C25.2889 3.98471 24.8869 4.16821 24.4325 4.16821C24.1529 4.16821 23.8995 4.10705 23.6636 3.99345C23.4276 3.87985 23.2179 3.72256 23.0431 3.53031C22.8684 3.33807 22.7286 3.11087 22.6324 2.85746C22.5363 2.60404 22.4839 2.33315 22.4839 2.06226C22.4839 1.79137 22.5363 1.52048 22.6324 1.26707C22.7286 1.01365 22.8684 0.795195 23.0431 0.611688C23.2179 0.419444 23.4276 0.270892 23.6636 0.166032C23.9082 0.0524325 24.1704 0 24.45 0C24.8433 0 25.1753 0.0786478 25.4462 0.244677C25.7171 0.410707 25.9181 0.629165 26.0492 0.891317L25.5511 1.24959C25.4375 1.02239 25.2802 0.856365 25.0879 0.742766C24.8869 0.629166 24.6685 0.576734 24.4325 0.576734C24.2403 0.576734 24.0655 0.620429 23.8995 0.699074C23.7422 0.786458 23.6024 0.891317 23.4888 1.03113C23.3752 1.17095 23.2878 1.32824 23.2266 1.51174C23.1655 1.69525 23.1393 1.87876 23.1393 2.07974C23.1393 2.28946 23.1742 2.48171 23.2441 2.66521C23.314 2.84872 23.4014 3.00601 23.5238 3.13708C23.6461 3.26816 23.7859 3.38176 23.9432 3.46041C24.1092 3.53905 24.284 3.58274 24.4762 3.58274C24.686 3.58274 24.8869 3.53031 25.0792 3.43419C25.2714 3.33807 25.4549 3.18951 25.6297 2.97979V2.54287H24.7646V2.06226H26.1802V4.142H25.6297V3.63517L25.6384 3.62644Z" fill="#231F20"/>
<path d="M32.5417 0.594117H31.161V4.13317H30.5057V0.594117H29.125V0.026123H32.5417V0.594117Z" fill="#231F20"/>
<path d="M34.3418 0.026123H34.9098L36.5439 4.13317H35.8535L35.4166 3.01465H33.8175L33.3893 4.13317H32.699L34.3418 0.026123ZM35.2855 2.53404L34.6214 0.768885L33.9311 2.53404H35.2855Z" fill="#231F20"/>
<path d="M37.4963 4.13317V0.026123H38.143V3.55643H40.3625V4.13317H37.4963Z" fill="#231F20"/>
<path d="M43.0542 4.13317V0.026123H44.7931C44.9767 0.026123 45.1514 0.0610742 45.3087 0.13972C45.466 0.218365 45.5971 0.31449 45.7107 0.445566C45.8243 0.567903 45.9117 0.716454 45.9728 0.873745C46.034 1.03104 46.0689 1.19707 46.0689 1.3631C46.0689 1.52913 46.0427 1.70389 45.9816 1.86118C45.9204 2.01848 45.833 2.16703 45.7282 2.28937C45.6233 2.4117 45.4922 2.51657 45.3349 2.58647C45.1776 2.66512 45.0116 2.70007 44.8281 2.70007H43.7096V4.12443H43.0542V4.13317ZM43.7008 2.13208H44.7757C44.8718 2.13208 44.9504 2.1146 45.0291 2.07091C45.1077 2.03595 45.1689 1.97478 45.2213 1.91362C45.2738 1.84371 45.3174 1.76506 45.3524 1.66894C45.3874 1.57282 45.3961 1.4767 45.3961 1.3631C45.3961 1.2495 45.3786 1.14464 45.3437 1.04851C45.3087 0.952391 45.2563 0.873745 45.1951 0.812577C45.1339 0.742669 45.064 0.690239 44.9854 0.655285C44.9067 0.620332 44.8194 0.602857 44.7407 0.602857H43.7008V2.13208Z" fill="#231F20"/>
<path d="M47.1173 4.13317V0.026123H48.9174C49.1009 0.026123 49.2757 0.0610742 49.433 0.13972C49.5903 0.218365 49.7214 0.31449 49.835 0.445566C49.9486 0.567903 50.036 0.716454 50.0971 0.873745C50.1583 1.03104 50.1932 1.19707 50.1932 1.3631C50.1932 1.50291 50.1758 1.63399 50.1321 1.76506C50.0884 1.89614 50.036 2.00974 49.966 2.1146C49.8961 2.21946 49.8088 2.31558 49.7126 2.39423C49.6078 2.47287 49.5029 2.53404 49.3806 2.569L50.3505 4.13317H49.6078L48.7077 2.70881H47.7552V4.13317H47.0999H47.1173ZM47.7727 2.13208H48.9174C49.0136 2.13208 49.0922 2.1146 49.1708 2.07091C49.2495 2.02722 49.3107 1.97478 49.3631 1.90488C49.4155 1.83497 49.4592 1.74759 49.4942 1.6602C49.5291 1.56408 49.5379 1.46796 49.5379 1.3631C49.5379 1.25824 49.5204 1.16211 49.4854 1.06599C49.4505 0.969868 49.398 0.891224 49.3369 0.821317C49.2757 0.75141 49.2058 0.698977 49.1272 0.655285C49.0485 0.611593 48.9611 0.594117 48.8825 0.594117H47.7727V2.12334V2.13208Z" fill="#231F20"/>
<path d="M54.2479 3.55643V4.13317H51.408V0.026123H54.1955V0.594117H52.0633V1.76506H53.9071V2.30684H52.0633V3.55643H54.2479Z" fill="#231F20"/>
<path d="M57.7172 0.98744C57.7172 0.98744 57.6211 0.900056 57.5512 0.847625C57.4813 0.795195 57.3939 0.751503 57.289 0.707811C57.1929 0.664119 57.0793 0.629167 56.9657 0.602951C56.8434 0.576736 56.7298 0.559257 56.5987 0.559257C56.319 0.559257 56.1181 0.611689 55.987 0.707811C55.8559 0.812672 55.7947 0.943747 55.7947 1.12725C55.7947 1.23211 55.8122 1.31076 55.8559 1.37193C55.8996 1.4331 55.9608 1.49427 56.0482 1.53796C56.1355 1.59039 56.2404 1.62534 56.3715 1.66903C56.5026 1.70399 56.6511 1.74768 56.8171 1.79137C57.0269 1.8438 57.2191 1.89623 57.3851 1.9574C57.5512 2.01857 57.6997 2.09721 57.8133 2.1846C57.9269 2.27198 58.023 2.38558 58.0842 2.50792C58.1454 2.639 58.1803 2.79629 58.1803 2.97979C58.1803 3.18951 58.1366 3.36428 58.058 3.52158C57.9793 3.67013 57.8657 3.79246 57.7347 3.88859C57.5949 3.98471 57.4376 4.05462 57.2541 4.09831C57.0705 4.142 56.8783 4.16821 56.6686 4.16821C56.354 4.16821 56.0482 4.12452 55.7598 4.0284C55.4627 3.93228 55.2005 3.79246 54.9646 3.6177L55.2617 3.06718C55.3141 3.11961 55.384 3.17204 55.4802 3.23321C55.5763 3.29438 55.6899 3.35554 55.8122 3.39924C55.9346 3.45167 56.0744 3.49536 56.2229 3.53031C56.3715 3.56527 56.52 3.58274 56.6861 3.58274C56.9395 3.58274 57.1405 3.53905 57.2803 3.45167C57.4201 3.36428 57.49 3.23321 57.49 3.05844C57.49 2.95358 57.4638 2.86619 57.4113 2.79629C57.3589 2.72638 57.2803 2.66521 57.1842 2.61278C57.088 2.56035 56.9657 2.51666 56.8259 2.47297C56.6861 2.42928 56.5288 2.38558 56.3453 2.34189C56.1355 2.28946 55.9608 2.22829 55.8035 2.16712C55.6549 2.10595 55.5239 2.03605 55.419 1.94866C55.3141 1.86128 55.2442 1.76516 55.1918 1.65156C55.1394 1.53796 55.1132 1.39814 55.1132 1.24085C55.1132 1.03987 55.1481 0.865102 55.2267 0.707811C55.3054 0.55052 55.4103 0.419443 55.5413 0.314583C55.6724 0.209722 55.8297 0.131076 56.0132 0.0786457C56.1967 0.0262153 56.3977 0 56.6074 0C56.887 0 57.1492 0.0436933 57.3851 0.131077C57.6211 0.218461 57.8308 0.332061 58.0056 0.463137L57.7085 0.996176L57.7172 0.98744Z" fill="#231F20"/>
<path d="M61.7194 0.98744C61.7194 0.98744 61.6233 0.900056 61.5534 0.847625C61.4835 0.795195 61.3961 0.751503 61.2912 0.707811C61.1951 0.664119 61.0815 0.629167 60.9679 0.602951C60.8455 0.576736 60.7319 0.559257 60.6009 0.559257C60.3212 0.559257 60.1203 0.611689 59.9892 0.707811C59.8581 0.812672 59.7969 0.943747 59.7969 1.12725C59.7969 1.23211 59.8144 1.31076 59.8581 1.37193C59.9018 1.4331 59.963 1.49427 60.0504 1.53796C60.1377 1.59039 60.2426 1.62534 60.3737 1.66903C60.5047 1.70399 60.6533 1.74768 60.8193 1.79137C61.0291 1.8438 61.2213 1.89623 61.3873 1.9574C61.5534 2.01857 61.7019 2.09721 61.8155 2.1846C61.9291 2.27198 62.0252 2.38558 62.0864 2.50792C62.1476 2.639 62.1825 2.79629 62.1825 2.97979C62.1825 3.18951 62.1388 3.36428 62.0602 3.52158C61.9815 3.67013 61.8679 3.79246 61.7369 3.88859C61.5971 3.98471 61.4398 4.05462 61.2563 4.09831C61.0727 4.142 60.8805 4.16821 60.6708 4.16821C60.3562 4.16821 60.0504 4.12452 59.762 4.0284C59.4649 3.93228 59.2027 3.79246 58.9668 3.6177L59.2639 3.06718C59.3163 3.11961 59.3862 3.17204 59.4824 3.23321C59.5785 3.29438 59.6921 3.35554 59.8144 3.39924C59.9368 3.45167 60.0766 3.49536 60.2251 3.53031C60.3737 3.56527 60.5222 3.58274 60.6883 3.58274C60.9417 3.58274 61.1427 3.53905 61.2825 3.45167C61.4223 3.36428 61.4922 3.23321 61.4922 3.05844C61.4922 2.95358 61.466 2.86619 61.4135 2.79629C61.3611 2.72638 61.2825 2.66521 61.1863 2.61278C61.0902 2.56035 60.9679 2.51666 60.8281 2.47297C60.6883 2.42928 60.531 2.38558 60.3475 2.34189C60.1377 2.28946 59.963 2.22829 59.8057 2.16712C59.6571 2.10595 59.5261 2.03605 59.4212 1.94866C59.3163 1.86128 59.2464 1.76516 59.194 1.65156C59.1416 1.53796 59.1153 1.39814 59.1153 1.24085C59.1153 1.03987 59.1503 0.865102 59.2289 0.707811C59.3076 0.55052 59.4125 0.419443 59.5435 0.314583C59.6746 0.209722 59.8319 0.131076 60.0154 0.0786457C60.1989 0.0262153 60.3999 0 60.6096 0C60.8892 0 61.1514 0.0436933 61.3873 0.131077C61.6233 0.218461 61.833 0.332061 62.0078 0.463137L61.7107 0.996176L61.7194 0.98744Z" fill="#231F20"/>
<path d="M43.2375 47.0911L42.9753 46.8202C42.8355 46.9251 42.6869 47.0038 42.5296 47.0562C42.3723 47.1086 42.2063 47.1348 42.0403 47.1348C41.8743 47.1348 41.7082 47.1086 41.5684 47.0562C41.4286 47.0038 41.3063 46.9338 41.2101 46.8377C41.114 46.7503 41.0354 46.6455 40.9829 46.5231C40.9305 46.4008 40.9043 46.2785 40.9043 46.1474C40.9043 46.0425 40.9218 45.9464 40.948 45.859C40.9829 45.7716 41.0179 45.693 41.0791 45.6231C41.1315 45.5532 41.1927 45.4833 41.2713 45.4221C41.3412 45.3609 41.4199 45.2998 41.4985 45.2473C41.3587 45.0988 41.2713 44.9677 41.2101 44.8628C41.1577 44.758 41.1315 44.6444 41.1315 44.5221C41.1315 44.3997 41.1577 44.2949 41.2014 44.1987C41.2451 44.1026 41.315 44.0152 41.3937 43.9453C41.4723 43.8754 41.5684 43.823 41.682 43.788C41.7956 43.7531 41.918 43.7356 42.049 43.7356C42.1626 43.7356 42.2762 43.7531 42.3811 43.7793C42.4859 43.8142 42.5821 43.8579 42.6607 43.9191C42.7394 43.9803 42.8093 44.0589 42.8617 44.1463C42.9141 44.2337 42.9403 44.3473 42.9403 44.4696C42.9403 44.6531 42.8879 44.8104 42.7831 44.9415C42.6782 45.0813 42.5384 45.2036 42.3723 45.326L43.0103 45.9901C43.0539 45.894 43.0976 45.7804 43.1239 45.6668C43.1501 45.5444 43.1675 45.4221 43.1675 45.2823H43.6831C43.6831 45.5007 43.6569 45.7017 43.6045 45.8852C43.552 46.0687 43.4821 46.2348 43.3947 46.3833L44.0851 47.0999H43.2549L43.2375 47.0911ZM42.1015 46.6455C42.2937 46.6455 42.4772 46.5843 42.6432 46.4532L41.8743 45.6493C41.7607 45.7279 41.682 45.8066 41.6121 45.8852C41.5509 45.9639 41.516 46.06 41.516 46.1561C41.516 46.2173 41.5335 46.2872 41.5597 46.3484C41.5859 46.4095 41.6296 46.462 41.682 46.5057C41.7344 46.5494 41.7956 46.5843 41.8655 46.6105C41.9354 46.6367 42.0141 46.6542 42.1015 46.6542M41.6995 44.5133C41.6995 44.5133 41.6995 44.5657 41.717 44.592C41.7257 44.6182 41.7432 44.6444 41.7607 44.6793C41.7869 44.7143 41.8131 44.7492 41.848 44.7842C41.883 44.8279 41.9267 44.8716 41.9879 44.9328C42.1102 44.8541 42.1976 44.7755 42.2588 44.7056C42.3199 44.6357 42.3549 44.557 42.3549 44.4784C42.3549 44.3997 42.3287 44.3298 42.2675 44.2774C42.2063 44.2249 42.1364 44.1987 42.0403 44.1987C41.9442 44.1987 41.8568 44.2249 41.7956 44.2861C41.7344 44.3473 41.6995 44.4172 41.6995 44.5046" fill="#231F20"/>
<path d="M46.3398 43.7793H46.9166L48.1836 47.0911H47.5195L47.2049 46.2697H46.0427L45.7369 47.0911H45.0728L46.3486 43.7793H46.3398ZM47.0826 45.8153L46.6194 44.5133L46.1388 45.8153H47.0826Z" fill="#231F20"/>
<path d="M51.2594 47.0911V44.8978L50.403 46.5319H50.0535L49.1884 44.8978V47.0911H48.5417V43.7793H49.2408L50.2283 45.6668L51.2244 43.7793H51.9148V47.0911H51.2594Z" fill="#231F20"/>
<path d="M55.2878 46.2347C55.2878 46.3745 55.2616 46.4969 55.2004 46.6017C55.148 46.7066 55.0694 46.794 54.9645 46.8639C54.8684 46.9338 54.7548 46.9862 54.6237 47.0299C54.4926 47.0649 54.3528 47.0824 54.2042 47.0824H52.5876V43.7705H54.3703C54.4839 43.7705 54.5887 43.7967 54.6849 43.8492C54.781 43.9016 54.8596 43.9628 54.9208 44.0414C54.9907 44.12 55.0344 44.2074 55.0693 44.3123C55.1043 44.4171 55.1218 44.5133 55.1218 44.6181C55.1218 44.7842 55.0781 44.9327 54.9994 45.0725C54.9208 45.2123 54.7985 45.3172 54.6412 45.3871C54.8334 45.4395 54.982 45.5444 55.0956 45.6842C55.2092 45.8328 55.2616 46.0075 55.2616 46.226M53.2518 44.3298V45.1686H54.1169C54.2305 45.1686 54.3178 45.1337 54.3965 45.055C54.4751 44.9851 54.5101 44.8803 54.5101 44.7492C54.5101 44.6181 54.4751 44.522 54.4052 44.4434C54.3353 44.3647 54.2479 44.3298 54.1431 44.3298H53.2518ZM54.6412 46.1124C54.6412 46.0512 54.6324 45.9988 54.6062 45.9464C54.5887 45.8939 54.5538 45.8415 54.5276 45.8065C54.4926 45.7629 54.4489 45.7366 54.4052 45.7104C54.3615 45.6842 54.3091 45.6755 54.2479 45.6755H53.2518V46.5493H54.213C54.2742 46.5493 54.3266 46.5406 54.379 46.5144C54.4315 46.4969 54.4751 46.4619 54.5101 46.427C54.545 46.392 54.58 46.3396 54.5975 46.2872C54.615 46.2347 54.6324 46.1823 54.6324 46.1211" fill="#231F20"/>
<path d="M56.4413 43.7793H55.7947V47.0911H56.4413V43.7793Z" fill="#231F20"/>
<path d="M59.6309 44.3473H58.5648V47.0911H57.9181V44.3473H56.8521V43.7793H59.6309V44.3473Z" fill="#231F20"/>
<path d="M60.6881 43.7793H60.0415V47.0911H60.6881V43.7793Z" fill="#231F20"/>
<path d="M62.8028 47.1173C62.5582 47.1173 62.3397 47.0736 62.1387 46.9774C61.9377 46.8813 61.7717 46.759 61.6231 46.6017C61.4833 46.4444 61.3697 46.2609 61.2911 46.0599C61.2124 45.8589 61.1775 45.6492 61.1775 45.4395C61.1775 45.2298 61.2212 45.0113 61.2998 44.8016C61.3872 44.6006 61.5008 44.4171 61.6406 44.2685C61.7892 44.1113 61.9639 43.9889 62.1562 43.9015C62.3572 43.8141 62.5756 43.7617 62.8116 43.7617C63.0475 43.7617 63.2747 43.8141 63.4757 43.9103C63.6767 44.0064 63.8427 44.1375 63.9825 44.2948C64.1223 44.4521 64.2359 44.6356 64.3146 44.8365C64.3932 45.0375 64.4282 45.2472 64.4282 45.4482C64.4282 45.6667 64.3845 45.8764 64.3058 46.0774C64.2272 46.2784 64.1136 46.4531 63.965 46.6104C63.8165 46.7677 63.6505 46.8901 63.4495 46.9774C63.2485 47.0736 63.03 47.1173 62.7941 47.1173M61.8329 45.4395C61.8329 45.5793 61.8591 45.7191 61.894 45.8589C61.9377 45.99 61.9989 46.1123 62.0863 46.2085C62.1737 46.3133 62.2698 46.392 62.3921 46.4531C62.5145 46.5143 62.6455 46.5493 62.8028 46.5493C62.9601 46.5493 63.0999 46.5143 63.2223 46.4531C63.3446 46.392 63.4495 46.3046 63.5281 46.1997C63.6068 46.0949 63.6767 45.9725 63.7116 45.8415C63.7553 45.7104 63.7728 45.5706 63.7728 45.4395C63.7728 45.3084 63.7466 45.1599 63.7029 45.0288C63.6592 44.8977 63.5893 44.7754 63.5106 44.6705C63.432 44.5657 63.3271 44.487 63.2048 44.4258C63.0825 44.3647 62.9514 44.3384 62.7941 44.3384C62.6368 44.3384 62.497 44.3734 62.3746 44.4346C62.2523 44.4957 62.1474 44.5831 62.0688 44.688C61.9902 44.7928 61.929 44.9064 61.8853 45.0463C61.8416 45.1773 61.8241 45.3172 61.8241 45.4482" fill="#231F20"/>
<path d="M65.5729 44.9677V47.0911H64.9263V43.7793H65.4331L67.172 45.9552V43.788H67.8187V47.0911H67.2944L65.5729 44.9677Z" fill="#231F20"/>
<path d="M69.6274 47.0911V43.7793H70.2828V46.5232H71.9781V47.0911H69.6274Z" fill="#231F20"/>
<path d="M72.8086 46.4182H72.2927V47.0915H72.8086V46.4182Z" fill="#231F20"/>
<path d="M73.4287 47.0911V43.7793H74.0754V46.5232H75.7706V47.0911H73.4287Z" fill="#231F20"/>
<path d="M76.6011 46.4182H76.0852V47.0915H76.6011V46.4182Z" fill="#231F20"/>
<path d="M76.9241 45.4132C76.9241 45.2122 76.959 45.0113 77.0377 44.8103C77.1076 44.6093 77.2212 44.4345 77.361 44.2772C77.5008 44.1199 77.6756 43.9976 77.8766 43.9015C78.0775 43.8054 78.3135 43.7529 78.5756 43.7529C78.8815 43.7529 79.1436 43.8228 79.3708 43.9539C79.598 44.085 79.7641 44.2598 79.8689 44.4782L79.3708 44.819C79.3271 44.7229 79.2747 44.6442 79.2135 44.5831C79.1524 44.5219 79.0825 44.4695 79.0125 44.4345C78.9426 44.3996 78.864 44.3734 78.7853 44.3559C78.7067 44.3384 78.6281 44.3297 78.5582 44.3297C78.3921 44.3297 78.2523 44.3646 78.13 44.4258C78.0076 44.487 77.9115 44.5743 77.8329 44.6792C77.7542 44.7841 77.6931 44.9064 77.6494 45.0375C77.6057 45.1686 77.5882 45.2996 77.5882 45.4307C77.5882 45.5793 77.6144 45.7191 77.6581 45.8501C77.7018 45.99 77.7717 46.1036 77.8591 46.2084C77.9465 46.3133 78.0513 46.3919 78.1649 46.4531C78.2873 46.5143 78.4183 46.5492 78.5582 46.5492C78.6368 46.5492 78.7154 46.5492 78.7941 46.523C78.8727 46.5055 78.9514 46.4706 79.03 46.4356C79.0999 46.3919 79.1698 46.3395 79.231 46.2783C79.2922 46.2172 79.3446 46.1385 79.3796 46.0511L79.9126 46.357C79.8602 46.4793 79.7815 46.5929 79.6854 46.689C79.5893 46.7852 79.4757 46.8638 79.3533 46.925C79.231 46.9861 79.0999 47.0386 78.9601 47.0735C78.8203 47.1085 78.6805 47.126 78.5494 47.126C78.3135 47.126 78.095 47.0735 77.894 46.9774C77.6931 46.8813 77.527 46.7502 77.3872 46.5842C77.2474 46.4269 77.1338 46.2434 77.0551 46.0424C76.9765 45.8414 76.9328 45.6317 76.9328 45.422" fill="#231F20"/>
<path d="M15.1349 16.0698L7.63736 39.6634H0L11.7794 7.63721H18.4992L30.2785 39.6634H22.6412L15.1349 16.0698Z" fill="#231F20"/>
<path d="M40.9131 7.63721H33.4592V39.6634H40.9131V7.63721Z" fill="#231F20"/>
<path d="M72.546 39.6634V20.4914L65.5466 34.4291H61.5531L54.5449 20.4914V39.6634H47.0911V7.63721H55.1828L63.5455 24.3712L71.9605 7.63721H79.9999V39.6634H72.546Z" fill="#231F20"/>
<path d="M18.8837 39.8994H11.6309V47.0999H18.8837V39.8994Z" fill="#231F20"/>
</svg>
