<svg width="23" height="23" viewBox="0 0 23 23" fill="none" xmlns="http://www.w3.org/2000/svg">
<path d="M22.0417 5.79167V4.70833C22.0417 2.66517 22.0417 1.64467 21.4068 1.00983C20.772 0.375 19.7515 0.375 17.7083 0.375H15.5417C13.4985 0.375 12.478 0.375 11.8432 1.00983C11.2083 1.64467 11.2083 2.66517 11.2083 4.70833M11.2083 4.70833V17.7083M11.2083 4.70833H13.375M11.2083 17.7083C11.2083 19.7515 11.2083 20.772 11.8432 21.4068C12.478 22.0417 13.4985 22.0417 15.5417 22.0417H17.7083C19.7515 22.0417 20.772 22.0417 21.4068 21.4068C22.0417 20.772 22.0417 19.7515 22.0417 17.7083V10.125M11.2083 17.7083H13.375M11.2083 11.2083H13.375M11.2083 14.4583H14.4583M11.2083 7.95833H14.4583M0.375 4.70833V3.625C0.375 2.76305 0.71741 1.9364 1.3269 1.3269C1.9364 0.71741 2.76305 0.375 3.625 0.375C4.48695 0.375 5.3136 0.71741 5.9231 1.3269C6.53259 1.9364 6.875 2.76305 6.875 3.625V4.70833M0.375 4.70833C0.375 4.70833 1.59375 5.79167 3.625 5.79167C5.65625 5.79167 6.875 4.70833 6.875 4.70833M0.375 4.70833V9.63317M6.875 4.70833V14.6685C6.875 15.3423 6.875 15.6803 6.83383 16.0108C6.7854 16.4011 6.69459 16.7851 6.563 17.1558C6.4525 17.47 6.30192 17.7722 5.99967 18.3757L4.72133 20.9323M4.72133 20.9323L4.40933 21.5574C4.33663 21.7032 4.22473 21.8259 4.08618 21.9116C3.94763 21.9974 3.78793 22.0428 3.625 22.0428C3.46207 22.0428 3.30237 21.9974 3.16382 21.9116C3.02527 21.8259 2.91337 21.7032 2.84067 21.5574L2.52867 20.9323M4.72133 20.9323H2.52867M2.52867 20.9323L1.25033 18.3757C0.948083 17.7722 0.7975 17.47 0.687 17.1558C0.555409 16.7851 0.464595 16.4011 0.416167 16.0108C0.375 15.6803 0.375 15.3423 0.375 14.6674V13.7249" stroke="black" stroke-width="0.75" stroke-linecap="round"/>
</svg>
